<svg width="1434" height="846" viewBox="0 0 1434 846" fill="none" xmlns="http://www.w3.org/2000/svg">
<rect y="0.660156" width="1434" height="845.34" fill="#FEAA52"/>
<path fill-rule="evenodd" clip-rule="evenodd" d="M101 691.342V692H51V691.342H60.2105V688.711H53.6316V682.132H51V681.474H53.6316V668.316H67.4474V674.895H74.0263V688.711H60.8684V691.342H90.4737V688.711H77.3158V674.895H83.8947V668.316H97.7105V681.474H100.342V651.868H97.7105V665.026H83.8947V658.447H77.3158V644.632H90.4737V642H91.1316V644.632H97.7105V651.211H100.342V642H101V691.342ZM100.342 691.342V682.132H97.7105V688.711H91.1316V691.342H100.342ZM77.9737 651.868V657.789H83.8947V651.868H77.9737ZM84.5526 657.789H91.1316V664.368H97.0526V651.868H90.4737V645.289H77.9737V651.211H84.5526V657.789ZM84.5526 658.447V664.368H90.4737V658.447H84.5526ZM91.1316 651.211H97.0526V645.289H91.1316V651.211ZM73.3684 681.474V675.553H67.4474V681.474H73.3684ZM66.7895 675.553H60.2105V668.974H54.2895V681.474H60.8684V688.053H73.3684V682.132H66.7895V675.553ZM66.7895 674.895V668.974H60.8684V674.895H66.7895ZM60.2105 682.132H54.2895V688.053H60.2105V682.132ZM77.9737 682.132V688.053H90.4737V681.474H97.0526V668.974H91.1316V675.553H84.5526V682.132H77.9737ZM83.8947 675.553H77.9737V681.474H83.8947V675.553ZM84.5526 674.895H90.4737V668.974H84.5526V674.895ZM91.1316 688.053V682.132H97.0526V688.053H91.1316ZM60.8684 642H60.2105V644.632H53.6316V651.211H51V651.868H53.6316V665.026H67.4474V658.447H74.0263V644.632H60.8684V642ZM67.4474 657.789H73.3684V651.868H67.4474V657.789ZM73.3684 651.211H66.7895V657.789H60.2105V664.368H54.2895V651.868H60.8684V645.289H73.3684V651.211ZM60.8684 658.447H66.7895V664.368H60.8684V658.447ZM60.2105 645.289H54.2895V651.211H60.2105V645.289Z" fill="#F8F3E6"/>
<path fill-rule="evenodd" clip-rule="evenodd" d="M47 743.342V744H-3V743.342H6.21053V740.711H-0.368421V734.132H-3V733.474H-0.368421V720.316H13.4474V726.895H20.0263V740.711H6.86842V743.342H36.4737V740.711H23.3158V726.895H29.8947V720.316H43.7105V733.474H46.3421V703.868H43.7105V717.026H29.8947V710.447H23.3158V696.632H36.4737V694H37.1316V696.632H43.7105V703.211H46.3421V694H47V743.342ZM46.3421 743.342V734.132H43.7105V740.711H37.1316V743.342H46.3421ZM23.9737 703.868V709.789H29.8947V703.868H23.9737ZM30.5526 709.789H37.1316V716.368H43.0526V703.868H36.4737V697.289H23.9737V703.211H30.5526V709.789ZM30.5526 710.447V716.368H36.4737V710.447H30.5526ZM37.1316 703.211H43.0526V697.289H37.1316V703.211ZM19.3684 733.474V727.553H13.4474V733.474H19.3684ZM12.7895 727.553H6.21053V720.974H0.289474V733.474H6.86842V740.053H19.3684V734.132H12.7895V727.553ZM12.7895 726.895V720.974H6.86842V726.895H12.7895ZM6.21053 734.132H0.289474V740.053H6.21053V734.132ZM23.9737 734.132V740.053H36.4737V733.474H43.0526V720.974H37.1316V727.553H30.5526V734.132H23.9737ZM29.8947 727.553H23.9737V733.474H29.8947V727.553ZM30.5526 726.895H36.4737V720.974H30.5526V726.895ZM37.1316 740.053V734.132H43.0526V740.053H37.1316ZM6.86842 694H6.21053V696.632H-0.368421V703.211H-3V703.868H-0.368421V717.026H13.4474V710.447H20.0263V696.632H6.86842V694ZM13.4474 709.789H19.3684V703.868H13.4474V709.789ZM19.3684 703.211H12.7895V709.789H6.21053V716.368H0.289474V703.868H6.86842V697.289H19.3684V703.211ZM6.86842 710.447H12.7895V716.368H6.86842V710.447ZM6.21053 697.289H0.289474V703.211H6.21053V697.289Z" fill="#F8F3E6"/>
<path fill-rule="evenodd" clip-rule="evenodd" d="M151 747.342V748H101V747.342H110.211V744.711H103.632V738.132H101V737.474H103.632V724.316H117.447V730.895H124.026V744.711H110.868V747.342H140.474V744.711H127.316V730.895H133.895V724.316H147.711V737.474H150.342V707.868H147.711V721.026H133.895V714.447H127.316V700.632H140.474V698H141.132V700.632H147.711V707.211H150.342V698H151V747.342ZM150.342 747.342V738.132H147.711V744.711H141.132V747.342H150.342ZM127.974 707.868V713.789H133.895V707.868H127.974ZM134.553 713.789H141.132V720.368H147.053V707.868H140.474V701.289H127.974V707.211H134.553V713.789ZM134.553 714.447V720.368H140.474V714.447H134.553ZM141.132 707.211H147.053V701.289H141.132V707.211ZM123.368 737.474V731.553H117.447V737.474H123.368ZM116.789 731.553H110.211V724.974H104.289V737.474H110.868V744.053H123.368V738.132H116.789V731.553ZM116.789 730.895V724.974H110.868V730.895H116.789ZM110.211 738.132H104.289V744.053H110.211V738.132ZM127.974 738.132V744.053H140.474V737.474H147.053V724.974H141.132V731.553H134.553V738.132H127.974ZM133.895 731.553H127.974V737.474H133.895V731.553ZM134.553 730.895H140.474V724.974H134.553V730.895ZM141.132 744.053V738.132H147.053V744.053H141.132ZM110.868 698H110.211V700.632H103.632V707.211H101V707.868H103.632V721.026H117.447V714.447H124.026V700.632H110.868V698ZM117.447 713.789H123.368V707.868H117.447V713.789ZM123.368 707.211H116.789V713.789H110.211V720.368H104.289V707.868H110.868V701.289H123.368V707.211ZM110.868 714.447H116.789V720.368H110.868V714.447ZM110.211 701.289H104.289V707.211H110.211V701.289Z" fill="#F8F3E6"/>
<path fill-rule="evenodd" clip-rule="evenodd" d="M193 789.342V790H143V789.342H152.211V786.711H145.632V780.132H143V779.474H145.632V766.316H159.447V772.895H166.026V786.711H152.868V789.342H182.474V786.711H169.316V772.895H175.895V766.316H189.711V779.474H192.342V749.868H189.711V763.026H175.895V756.447H169.316V742.632H182.474V740H183.132V742.632H189.711V749.211H192.342V740H193V789.342ZM192.342 789.342V780.132H189.711V786.711H183.132V789.342H192.342ZM169.974 749.868V755.789H175.895V749.868H169.974ZM176.553 755.789H183.132V762.368H189.053V749.868H182.474V743.289H169.974V749.211H176.553V755.789ZM176.553 756.447V762.368H182.474V756.447H176.553ZM183.132 749.211H189.053V743.289H183.132V749.211ZM165.368 779.474V773.553H159.447V779.474H165.368ZM158.789 773.553H152.211V766.974H146.289V779.474H152.868V786.053H165.368V780.132H158.789V773.553ZM158.789 772.895V766.974H152.868V772.895H158.789ZM152.211 780.132H146.289V786.053H152.211V780.132ZM169.974 780.132V786.053H182.474V779.474H189.053V766.974H183.132V773.553H176.553V780.132H169.974ZM175.895 773.553H169.974V779.474H175.895V773.553ZM176.553 772.895H182.474V766.974H176.553V772.895ZM183.132 786.053V780.132H189.053V786.053H183.132ZM152.868 740H152.211V742.632H145.632V749.211H143V749.868H145.632V763.026H159.447V756.447H166.026V742.632H152.868V740ZM159.447 755.789H165.368V749.868H159.447V755.789ZM165.368 749.211H158.789V755.789H152.211V762.368H146.289V749.868H152.868V743.289H165.368V749.211ZM152.868 756.447H158.789V762.368H152.868V756.447ZM152.211 743.289H146.289V749.211H152.211V743.289Z" fill="#F8F3E6"/>
<g clip-path="url(#clip0)">
<path fill-rule="evenodd" clip-rule="evenodd" d="M50.9993 62.3279V62.9858H0.999329V62.3279H10.2099V59.6964H3.63091V53.1174H0.999329V52.4595H3.63091V39.3016H17.4467V45.8806H24.0256V59.6964H10.8677V62.3279H40.473V59.6964H27.3151V45.8806H33.8941V39.3016H47.7099V52.4595H50.3414V22.8543H47.7099V36.0122H33.8941V29.4332H27.3151V15.6174H40.473V12.9858H41.1309V15.6174H47.7099V22.1964H50.3414V12.9858H50.9993V62.3279ZM50.3414 62.3279V53.1174H47.7099V59.6964H41.1309V62.3279H50.3414ZM27.973 22.8543V28.7753H33.8941V22.8543H27.973ZM34.552 28.7753H41.1309V35.3543H47.052V22.8543H40.473V16.2753H27.973V22.1964H34.552V28.7753ZM34.552 29.4332V35.3543H40.473V29.4332H34.552ZM41.1309 22.1964H47.052V16.2753H41.1309V22.1964ZM23.3677 52.4595V46.5385H17.4467V52.4595H23.3677ZM16.7888 46.5385H10.2099V39.9595H4.2888V52.4595H10.8677V59.0385H23.3677V53.1174H16.7888V46.5385ZM16.7888 45.8806V39.9595H10.8677V45.8806H16.7888ZM10.2099 53.1174H4.2888V59.0385H10.2099V53.1174ZM27.973 53.1174V59.0385H40.473V52.4595H47.052V39.9595H41.1309V46.5385H34.552V53.1174H27.973ZM33.8941 46.5385H27.973V52.4595H33.8941V46.5385ZM34.552 45.8806H40.473V39.9595H34.552V45.8806ZM41.1309 59.0385V53.1174H47.052V59.0385H41.1309ZM10.8677 12.9858H10.2099V15.6174H3.63091V22.1964H0.999329V22.8543H3.63091V36.0122H17.4467V29.4332H24.0256V15.6174H10.8677V12.9858ZM17.4467 28.7753H23.3677V22.8543H17.4467V28.7753ZM23.3677 22.1964H16.7888V28.7753H10.2099V35.3543H4.2888V22.8543H10.8677V16.2753H23.3677V22.1964ZM10.8677 29.4332H16.7888V35.3543H10.8677V29.4332ZM10.2099 16.2753H4.2888V22.1964H10.2099V16.2753Z" fill="#F8F3E6"/>
</g>
<path fill-rule="evenodd" clip-rule="evenodd" d="M101 118.342V119H51V118.342H60.2105V115.711H53.6316V109.132H51V108.474H53.6316V95.3158H67.4474V101.895H74.0263V115.711H60.8684V118.342H90.4737V115.711H77.3158V101.895H83.8947V95.3158H97.7105V108.474H100.342V78.8684H97.7105V92.0263H83.8947V85.4474H77.3158V71.6316H90.4737V69H91.1316V71.6316H97.7105V78.2105H100.342V69H101V118.342ZM100.342 118.342V109.132H97.7105V115.711H91.1316V118.342H100.342ZM77.9737 78.8684V84.7895H83.8947V78.8684H77.9737ZM84.5526 84.7895H91.1316V91.3684H97.0526V78.8684H90.4737V72.2895H77.9737V78.2105H84.5526V84.7895ZM84.5526 85.4474V91.3684H90.4737V85.4474H84.5526ZM91.1316 78.2105H97.0526V72.2895H91.1316V78.2105ZM73.3684 108.474V102.553H67.4474V108.474H73.3684ZM66.7895 102.553H60.2105V95.9737H54.2895V108.474H60.8684V115.053H73.3684V109.132H66.7895V102.553ZM66.7895 101.895V95.9737H60.8684V101.895H66.7895ZM60.2105 109.132H54.2895V115.053H60.2105V109.132ZM77.9737 109.132V115.053H90.4737V108.474H97.0526V95.9737H91.1316V102.553H84.5526V109.132H77.9737ZM83.8947 102.553H77.9737V108.474H83.8947V102.553ZM84.5526 101.895H90.4737V95.9737H84.5526V101.895ZM91.1316 115.053V109.132H97.0526V115.053H91.1316ZM60.8684 69H60.2105V71.6316H53.6316V78.2105H51V78.8684H53.6316V92.0263H67.4474V85.4474H74.0263V71.6316H60.8684V69ZM67.4474 84.7895H73.3684V78.8684H67.4474V84.7895ZM73.3684 78.2105H66.7895V84.7895H60.2105V91.3684H54.2895V78.8684H60.8684V72.2895H73.3684V78.2105ZM60.8684 85.4474H66.7895V91.3684H60.8684V85.4474ZM60.2105 72.2895H54.2895V78.2105H60.2105V72.2895Z" fill="#F8F3E6"/>
<path fill-rule="evenodd" clip-rule="evenodd" d="M1380 103.342V104H1330V103.342H1339.21V100.711H1332.63V94.1316H1330V93.4737H1332.63V80.3158H1346.45V86.8947H1353.03V100.711H1339.87V103.342H1369.47V100.711H1356.32V86.8947H1362.89V80.3158H1376.71V93.4737H1379.34V63.8684H1376.71V77.0263H1362.89V70.4474H1356.32V56.6316H1369.47V54H1370.13V56.6316H1376.71V63.2105H1379.34V54H1380V103.342ZM1379.34 103.342V94.1316H1376.71V100.711H1370.13V103.342H1379.34ZM1356.97 63.8684V69.7895H1362.89V63.8684H1356.97ZM1363.55 69.7895H1370.13V76.3684H1376.05V63.8684H1369.47V57.2895H1356.97V63.2105H1363.55V69.7895ZM1363.55 70.4474V76.3684H1369.47V70.4474H1363.55ZM1370.13 63.2105H1376.05V57.2895H1370.13V63.2105ZM1352.37 93.4737V87.5526H1346.45V93.4737H1352.37ZM1345.79 87.5526H1339.21V80.9737H1333.29V93.4737H1339.87V100.053H1352.37V94.1316H1345.79V87.5526ZM1345.79 86.8947V80.9737H1339.87V86.8947H1345.79ZM1339.21 94.1316H1333.29V100.053H1339.21V94.1316ZM1356.97 94.1316V100.053H1369.47V93.4737H1376.05V80.9737H1370.13V87.5526H1363.55V94.1316H1356.97ZM1362.89 87.5526H1356.97V93.4737H1362.89V87.5526ZM1363.55 86.8947H1369.47V80.9737H1363.55V86.8947ZM1370.13 100.053V94.1316H1376.05V100.053H1370.13ZM1339.87 54H1339.21V56.6316H1332.63V63.2105H1330V63.8684H1332.63V77.0263H1346.45V70.4474H1353.03V56.6316H1339.87V54ZM1346.45 69.7895H1352.37V63.8684H1346.45V69.7895ZM1352.37 63.2105H1345.79V69.7895H1339.21V76.3684H1333.29V63.8684H1339.87V57.2895H1352.37V63.2105ZM1339.87 70.4474H1345.79V76.3684H1339.87V70.4474ZM1339.21 57.2895H1333.29V63.2105H1339.21V57.2895Z" fill="#F8F3E6"/>
<path fill-rule="evenodd" clip-rule="evenodd" d="M1330 53.3421V54H1280V53.3421H1289.21V50.7105H1282.63V44.1316H1280V43.4737H1282.63V30.3158H1296.45V36.8947H1303.03V50.7105H1289.87V53.3421H1319.47V50.7105H1306.32V36.8947H1312.89V30.3158H1326.71V43.4737H1329.34V13.8684H1326.71V27.0263H1312.89V20.4474H1306.32V6.63158H1319.47V4H1320.13V6.63158H1326.71V13.2105H1329.34V4H1330V53.3421ZM1329.34 53.3421V44.1316H1326.71V50.7105H1320.13V53.3421H1329.34ZM1306.97 13.8684V19.7895H1312.89V13.8684H1306.97ZM1313.55 19.7895H1320.13V26.3684H1326.05V13.8684H1319.47V7.28947H1306.97V13.2105H1313.55V19.7895ZM1313.55 20.4474V26.3684H1319.47V20.4474H1313.55ZM1320.13 13.2105H1326.05V7.28947H1320.13V13.2105ZM1302.37 43.4737V37.5526H1296.45V43.4737H1302.37ZM1295.79 37.5526H1289.21V30.9737H1283.29V43.4737H1289.87V50.0526H1302.37V44.1316H1295.79V37.5526ZM1295.79 36.8947V30.9737H1289.87V36.8947H1295.79ZM1289.21 44.1316H1283.29V50.0526H1289.21V44.1316ZM1306.97 44.1316V50.0526H1319.47V43.4737H1326.05V30.9737H1320.13V37.5526H1313.55V44.1316H1306.97ZM1312.89 37.5526H1306.97V43.4737H1312.89V37.5526ZM1313.55 36.8947H1319.47V30.9737H1313.55V36.8947ZM1320.13 50.0526V44.1316H1326.05V50.0526H1320.13ZM1289.87 4H1289.21V6.63158H1282.63V13.2105H1280V13.8684H1282.63V27.0263H1296.45V20.4474H1303.03V6.63158H1289.87V4ZM1296.45 19.7895H1302.37V13.8684H1296.45V19.7895ZM1302.37 13.2105H1295.79V19.7895H1289.21V26.3684H1283.29V13.8684H1289.87V7.28947H1302.37V13.2105ZM1289.87 20.4474H1295.79V26.3684H1289.87V20.4474ZM1289.21 7.28947H1283.29V13.2105H1289.21V7.28947Z" fill="#F8F3E6"/>
<path fill-rule="evenodd" clip-rule="evenodd" d="M1430 153.342V154H1380V153.342H1389.21V150.711H1382.63V144.132H1380V143.474H1382.63V130.316H1396.45V136.895H1403.03V150.711H1389.87V153.342H1419.47V150.711H1406.32V136.895H1412.89V130.316H1426.71V143.474H1429.34V113.868H1426.71V127.026H1412.89V120.447H1406.32V106.632H1419.47V104H1420.13V106.632H1426.71V113.211H1429.34V104H1430V153.342ZM1429.34 153.342V144.132H1426.71V150.711H1420.13V153.342H1429.34ZM1406.97 113.868V119.789H1412.89V113.868H1406.97ZM1413.55 119.789H1420.13V126.368H1426.05V113.868H1419.47V107.289H1406.97V113.211H1413.55V119.789ZM1413.55 120.447V126.368H1419.47V120.447H1413.55ZM1420.13 113.211H1426.05V107.289H1420.13V113.211ZM1402.37 143.474V137.553H1396.45V143.474H1402.37ZM1395.79 137.553H1389.21V130.974H1383.29V143.474H1389.87V150.053H1402.37V144.132H1395.79V137.553ZM1395.79 136.895V130.974H1389.87V136.895H1395.79ZM1389.21 144.132H1383.29V150.053H1389.21V144.132ZM1406.97 144.132V150.053H1419.47V143.474H1426.05V130.974H1420.13V137.553H1413.55V144.132H1406.97ZM1412.89 137.553H1406.97V143.474H1412.89V137.553ZM1413.55 136.895H1419.47V130.974H1413.55V136.895ZM1420.13 150.053V144.132H1426.05V150.053H1420.13ZM1389.87 104H1389.21V106.632H1382.63V113.211H1380V113.868H1382.63V127.026H1396.45V120.447H1403.03V106.632H1389.87V104ZM1396.45 119.789H1402.37V113.868H1396.45V119.789ZM1402.37 113.211H1395.79V119.789H1389.21V126.368H1383.29V113.868H1389.87V107.289H1402.37V113.211ZM1389.87 120.447H1395.79V126.368H1389.87V120.447ZM1389.21 107.289H1383.29V113.211H1389.21V107.289Z" fill="#F8F3E6"/>
<path fill-rule="evenodd" clip-rule="evenodd" d="M1384 795.342V796H1334V795.342H1343.21V792.711H1336.63V786.132H1334V785.474H1336.63V772.316H1350.45V778.895H1357.03V792.711H1343.87V795.342H1373.47V792.711H1360.32V778.895H1366.89V772.316H1380.71V785.474H1383.34V755.868H1380.71V769.026H1366.89V762.447H1360.32V748.632H1373.47V746H1374.13V748.632H1380.71V755.211H1383.34V746H1384V795.342ZM1383.34 795.342V786.132H1380.71V792.711H1374.13V795.342H1383.34ZM1360.97 755.868V761.789H1366.89V755.868H1360.97ZM1367.55 761.789H1374.13V768.368H1380.05V755.868H1373.47V749.289H1360.97V755.211H1367.55V761.789ZM1367.55 762.447V768.368H1373.47V762.447H1367.55ZM1374.13 755.211H1380.05V749.289H1374.13V755.211ZM1356.37 785.474V779.553H1350.45V785.474H1356.37ZM1349.79 779.553H1343.21V772.974H1337.29V785.474H1343.87V792.053H1356.37V786.132H1349.79V779.553ZM1349.79 778.895V772.974H1343.87V778.895H1349.79ZM1343.21 786.132H1337.29V792.053H1343.21V786.132ZM1360.97 786.132V792.053H1373.47V785.474H1380.05V772.974H1374.13V779.553H1367.55V786.132H1360.97ZM1366.89 779.553H1360.97V785.474H1366.89V779.553ZM1367.55 778.895H1373.47V772.974H1367.55V778.895ZM1374.13 792.053V786.132H1380.05V792.053H1374.13ZM1343.87 746H1343.21V748.632H1336.63V755.211H1334V755.868H1336.63V769.026H1350.45V762.447H1357.03V748.632H1343.87V746ZM1350.45 761.789H1356.37V755.868H1350.45V761.789ZM1356.37 755.211H1349.79V761.789H1343.21V768.368H1337.29V755.868H1343.87V749.289H1356.37V755.211ZM1343.87 762.447H1349.79V768.368H1343.87V762.447ZM1343.21 749.289H1337.29V755.211H1343.21V749.289Z" fill="#F8F3E6"/>
<path fill-rule="evenodd" clip-rule="evenodd" d="M1434 843.342V844H1384V843.342H1393.21V840.711H1386.63V834.132H1384V833.474H1386.63V820.316H1400.45V826.895H1407.03V840.711H1393.87V843.342H1423.47V840.711H1410.32V826.895H1416.89V820.316H1430.71V833.474H1433.34V803.868H1430.71V817.026H1416.89V810.447H1410.32V796.632H1423.47V794H1424.13V796.632H1430.71V803.211H1433.34V794H1434V843.342ZM1433.34 843.342V834.132H1430.71V840.711H1424.13V843.342H1433.34ZM1410.97 803.868V809.789H1416.89V803.868H1410.97ZM1417.55 809.789H1424.13V816.368H1430.05V803.868H1423.47V797.289H1410.97V803.211H1417.55V809.789ZM1417.55 810.447V816.368H1423.47V810.447H1417.55ZM1424.13 803.211H1430.05V797.289H1424.13V803.211ZM1406.37 833.474V827.553H1400.45V833.474H1406.37ZM1399.79 827.553H1393.21V820.974H1387.29V833.474H1393.87V840.053H1406.37V834.132H1399.79V827.553ZM1399.79 826.895V820.974H1393.87V826.895H1399.79ZM1393.21 834.132H1387.29V840.053H1393.21V834.132ZM1410.97 834.132V840.053H1423.47V833.474H1430.05V820.974H1424.13V827.553H1417.55V834.132H1410.97ZM1416.89 827.553H1410.97V833.474H1416.89V827.553ZM1417.55 826.895H1423.47V820.974H1417.55V826.895ZM1424.13 840.053V834.132H1430.05V840.053H1424.13ZM1393.87 794H1393.21V796.632H1386.63V803.211H1384V803.868H1386.63V817.026H1400.45V810.447H1407.03V796.632H1393.87V794ZM1400.45 809.789H1406.37V803.868H1400.45V809.789ZM1406.37 803.211H1399.79V809.789H1393.21V816.368H1387.29V803.868H1393.87V797.289H1406.37V803.211ZM1393.87 810.447H1399.79V816.368H1393.87V810.447ZM1393.21 797.289H1387.29V803.211H1393.21V797.289Z" fill="#F8F3E6"/>
<path fill-rule="evenodd" clip-rule="evenodd" d="M1430 53.3421V54H1380V53.3421H1389.21V50.7105H1382.63V44.1316H1380V43.4737H1382.63V30.3158H1396.45V36.8947H1403.03V50.7105H1389.87V53.3421H1419.47V50.7105H1406.32V36.8947H1412.89V30.3158H1426.71V43.4737H1429.34V13.8684H1426.71V27.0263H1412.89V20.4474H1406.32V6.63158H1419.47V4H1420.13V6.63158H1426.71V13.2105H1429.34V4H1430V53.3421ZM1429.34 53.3421V44.1316H1426.71V50.7105H1420.13V53.3421H1429.34ZM1406.97 13.8684V19.7895H1412.89V13.8684H1406.97ZM1413.55 19.7895H1420.13V26.3684H1426.05V13.8684H1419.47V7.28947H1406.97V13.2105H1413.55V19.7895ZM1413.55 20.4474V26.3684H1419.47V20.4474H1413.55ZM1420.13 13.2105H1426.05V7.28947H1420.13V13.2105ZM1402.37 43.4737V37.5526H1396.45V43.4737H1402.37ZM1395.79 37.5526H1389.21V30.9737H1383.29V43.4737H1389.87V50.0526H1402.37V44.1316H1395.79V37.5526ZM1395.79 36.8947V30.9737H1389.87V36.8947H1395.79ZM1389.21 44.1316H1383.29V50.0526H1389.21V44.1316ZM1406.97 44.1316V50.0526H1419.47V43.4737H1426.05V30.9737H1420.13V37.5526H1413.55V44.1316H1406.97ZM1412.89 37.5526H1406.97V43.4737H1412.89V37.5526ZM1413.55 36.8947H1419.47V30.9737H1413.55V36.8947ZM1420.13 50.0526V44.1316H1426.05V50.0526H1420.13ZM1389.87 4H1389.21V6.63158H1382.63V13.2105H1380V13.8684H1382.63V27.0263H1396.45V20.4474H1403.03V6.63158H1389.87V4ZM1396.45 19.7895H1402.37V13.8684H1396.45V19.7895ZM1402.37 13.2105H1395.79V19.7895H1389.21V26.3684H1383.29V13.8684H1389.87V7.28947H1402.37V13.2105ZM1389.87 20.4474H1395.79V26.3684H1389.87V20.4474ZM1389.21 7.28947H1383.29V13.2105H1389.21V7.28947Z" fill="#F8F3E6"/>
<path fill-rule="evenodd" clip-rule="evenodd" d="M97 789.342V790H47V789.342H56.2105V786.711H49.6316V780.132H47V779.474H49.6316V766.316H63.4474V772.895H70.0263V786.711H56.8684V789.342H86.4737V786.711H73.3158V772.895H79.8947V766.316H93.7105V779.474H96.3421V749.868H93.7105V763.026H79.8947V756.447H73.3158V742.632H86.4737V740H87.1316V742.632H93.7105V749.211H96.3421V740H97V789.342ZM96.3421 789.342V780.132H93.7105V786.711H87.1316V789.342H96.3421ZM73.9737 749.868V755.789H79.8947V749.868H73.9737ZM80.5526 755.789H87.1316V762.368H93.0526V749.868H86.4737V743.289H73.9737V749.211H80.5526V755.789ZM80.5526 756.447V762.368H86.4737V756.447H80.5526ZM87.1316 749.211H93.0526V743.289H87.1316V749.211ZM69.3684 779.474V773.553H63.4474V779.474H69.3684ZM62.7895 773.553H56.2105V766.974H50.2895V779.474H56.8684V786.053H69.3684V780.132H62.7895V773.553ZM62.7895 772.895V766.974H56.8684V772.895H62.7895ZM56.2105 780.132H50.2895V786.053H56.2105V780.132ZM73.9737 780.132V786.053H86.4737V779.474H93.0526V766.974H87.1316V773.553H80.5526V780.132H73.9737ZM79.8947 773.553H73.9737V779.474H79.8947V773.553ZM80.5526 772.895H86.4737V766.974H80.5526V772.895ZM87.1316 786.053V780.132H93.0526V786.053H87.1316ZM56.8684 740H56.2105V742.632H49.6316V749.211H47V749.868H49.6316V763.026H63.4474V756.447H70.0263V742.632H56.8684V740ZM63.4474 755.789H69.3684V749.868H63.4474V755.789ZM69.3684 749.211H62.7895V755.789H56.2105V762.368H50.2895V749.868H56.8684V743.289H69.3684V749.211ZM56.8684 756.447H62.7895V762.368H56.8684V756.447ZM56.2105 743.289H50.2895V749.211H56.2105V743.289Z" fill="#F8F3E6"/>
<path fill-rule="evenodd" clip-rule="evenodd" d="M51 839.342V840H1V839.342H10.2105V836.711H3.63158V830.132H1V829.474H3.63158V816.316H17.4474V822.895H24.0263V836.711H10.8684V839.342H40.4737V836.711H27.3158V822.895H33.8947V816.316H47.7105V829.474H50.3421V799.868H47.7105V813.026H33.8947V806.447H27.3158V792.632H40.4737V790H41.1316V792.632H47.7105V799.211H50.3421V790H51V839.342ZM50.3421 839.342V830.132H47.7105V836.711H41.1316V839.342H50.3421ZM27.9737 799.868V805.789H33.8947V799.868H27.9737ZM34.5526 805.789H41.1316V812.368H47.0526V799.868H40.4737V793.289H27.9737V799.211H34.5526V805.789ZM34.5526 806.447V812.368H40.4737V806.447H34.5526ZM41.1316 799.211H47.0526V793.289H41.1316V799.211ZM23.3684 829.474V823.553H17.4474V829.474H23.3684ZM16.7895 823.553H10.2105V816.974H4.28947V829.474H10.8684V836.053H23.3684V830.132H16.7895V823.553ZM16.7895 822.895V816.974H10.8684V822.895H16.7895ZM10.2105 830.132H4.28947V836.053H10.2105V830.132ZM27.9737 830.132V836.053H40.4737V829.474H47.0526V816.974H41.1316V823.553H34.5526V830.132H27.9737ZM33.8947 823.553H27.9737V829.474H33.8947V823.553ZM34.5526 822.895H40.4737V816.974H34.5526V822.895ZM41.1316 836.053V830.132H47.0526V836.053H41.1316ZM10.8684 790H10.2105V792.632H3.63158V799.211H1V799.868H3.63158V813.026H17.4474V806.447H24.0263V792.632H10.8684V790ZM17.4474 805.789H23.3684V799.868H17.4474V805.789ZM23.3684 799.211H16.7895V805.789H10.2105V812.368H4.28947V799.868H10.8684V793.289H23.3684V799.211ZM10.8684 806.447H16.7895V812.368H10.8684V806.447ZM10.2105 793.289H4.28947V799.211H10.2105V793.289Z" fill="#F8F3E6"/>
<path fill-rule="evenodd" clip-rule="evenodd" d="M151 839.342V840H101V839.342H110.211V836.711H103.632V830.132H101V829.474H103.632V816.316H117.447V822.895H124.026V836.711H110.868V839.342H140.474V836.711H127.316V822.895H133.895V816.316H147.711V829.474H150.342V799.868H147.711V813.026H133.895V806.447H127.316V792.632H140.474V790H141.132V792.632H147.711V799.211H150.342V790H151V839.342ZM150.342 839.342V830.132H147.711V836.711H141.132V839.342H150.342ZM127.974 799.868V805.789H133.895V799.868H127.974ZM134.553 805.789H141.132V812.368H147.053V799.868H140.474V793.289H127.974V799.211H134.553V805.789ZM134.553 806.447V812.368H140.474V806.447H134.553ZM141.132 799.211H147.053V793.289H141.132V799.211ZM123.368 829.474V823.553H117.447V829.474H123.368ZM116.789 823.553H110.211V816.974H104.289V829.474H110.868V836.053H123.368V830.132H116.789V823.553ZM116.789 822.895V816.974H110.868V822.895H116.789ZM110.211 830.132H104.289V836.053H110.211V830.132ZM127.974 830.132V836.053H140.474V829.474H147.053V816.974H141.132V823.553H134.553V830.132H127.974ZM133.895 823.553H127.974V829.474H133.895V823.553ZM134.553 822.895H140.474V816.974H134.553V822.895ZM141.132 836.053V830.132H147.053V836.053H141.132ZM110.868 790H110.211V792.632H103.632V799.211H101V799.868H103.632V813.026H117.447V806.447H124.026V792.632H110.868V790ZM117.447 805.789H123.368V799.868H117.447V805.789ZM123.368 799.211H116.789V805.789H110.211V812.368H104.289V799.868H110.868V793.289H123.368V799.211ZM110.868 806.447H116.789V812.368H110.868V806.447ZM110.211 793.289H104.289V799.211H110.211V793.289Z" fill="#F8F3E6"/>
<defs>
<clipPath id="clip0">
<rect width="50" height="50" fill="white" transform="translate(0.999329 12.9858)"/>
</clipPath>
</defs>
</svg>
