<svg width="683" height="554" viewBox="0 0 683 554" fill="none" xmlns="http://www.w3.org/2000/svg">
<g clip-path="url(#clip0)">
<path d="M580.172 151.283C579.033 135.73 575.887 120.52 570.858 106.26C569.457 102.291 567.914 98.4103 566.231 94.6166C566.147 94.4182 566.126 94.186 566.174 93.9689C566.222 93.7519 566.335 93.5671 566.489 93.4533C566.642 93.3396 566.824 93.3058 566.997 93.3592C567.17 93.4127 567.32 93.549 567.415 93.7396C573.537 107.557 577.826 122.556 580.11 138.137C580.746 142.488 581.223 146.87 581.543 151.283C581.624 152.396 580.253 152.389 580.172 151.283Z" fill="#E6E6E6"/>
<path d="M562.911 97.4033C558.116 97.4033 554.23 92.4764 554.23 86.3988C554.23 80.3212 558.116 75.3943 562.911 75.3943C567.706 75.3943 571.592 80.3212 571.592 86.3988C571.592 92.4764 567.706 97.4033 562.911 97.4033Z" fill="#E6E6E6"/>
<path d="M579.284 151.575C578.545 141.485 576.504 131.618 573.242 122.366C572.333 119.792 571.332 117.274 570.24 114.813C570.185 114.684 570.172 114.534 570.203 114.393C570.234 114.252 570.307 114.132 570.407 114.058C570.507 113.985 570.625 113.963 570.737 113.997C570.849 114.032 570.946 114.12 571.008 114.244C574.98 123.208 577.762 132.939 579.244 143.047C579.656 145.87 579.966 148.712 580.174 151.575C580.226 152.297 579.337 152.292 579.284 151.575Z" fill="#E6E6E6"/>
<path d="M568.086 116.621C564.976 116.621 562.454 113.425 562.454 109.482C562.454 105.539 564.976 102.343 568.086 102.343C571.196 102.343 573.718 105.539 573.718 109.482C573.718 113.425 571.196 116.621 568.086 116.621Z" fill="#E6E6E6"/>
<path d="M580.407 150.901C584.72 142.369 587.898 132.997 589.815 123.16C590.347 120.421 590.78 117.656 591.113 114.863C591.132 114.719 591.195 114.59 591.287 114.503C591.38 114.417 591.496 114.379 591.611 114.399C591.725 114.418 591.829 114.493 591.9 114.608C591.972 114.722 592.006 114.868 591.994 115.013C590.776 125.178 588.249 135.02 584.513 144.145C583.468 146.693 582.333 149.175 581.108 151.594C580.799 152.205 580.1 151.508 580.407 150.901Z" fill="#E6E6E6"/>
<path d="M592.001 116.12C588.891 116.12 586.369 112.924 586.369 108.981C586.369 105.038 588.891 101.842 592.001 101.842C595.112 101.842 597.633 105.038 597.633 108.981C597.633 112.924 595.112 116.12 592.001 116.12Z" fill="#E6E6E6"/>
<path d="M597.696 157.218V143.191C597.695 141.796 597.258 140.459 596.48 139.473C595.702 138.487 594.647 137.932 593.547 137.931H567.727C566.627 137.932 565.572 138.487 564.794 139.473C564.016 140.459 563.579 141.796 563.578 143.191V157.218C563.579 158.612 564.016 159.949 564.794 160.935C565.572 161.921 566.627 162.476 567.727 162.478H593.547C594.647 162.476 595.702 161.921 596.48 160.935C597.258 159.949 597.695 158.612 597.696 157.218Z" fill="#F2F2F2"/>
<path d="M568.649 67.7964H579.715C580.815 67.7948 581.87 67.2401 582.648 66.254C583.426 65.2679 583.863 63.9309 583.864 62.5363V5.26006C583.863 3.86549 583.426 2.52849 582.648 1.54237C581.87 0.556259 580.815 0.00157166 579.715 0H568.649C567.549 0.00157166 566.494 0.556259 565.716 1.54237C564.939 2.52849 564.501 3.86549 564.5 5.26006V62.5363C564.501 63.9309 564.939 65.2679 565.716 66.254C566.494 67.2401 567.549 67.7948 568.649 67.7964Z" fill="#F2F2F2"/>
<path d="M564.961 11.1045H583.403V15.7801H564.961V11.1045Z" fill="#CCCCCC"/>
<path d="M564.961 47.3406H583.403V52.0162H564.961V47.3406Z" fill="#CCCCCC"/>
<path d="M540.985 67.7964H552.051C553.151 67.7948 554.206 67.2401 554.984 66.254C555.762 65.2679 556.199 63.9309 556.201 62.5363V5.26006C556.199 3.86549 555.762 2.52849 554.984 1.54237C554.206 0.556259 553.151 0.00157166 552.051 0H540.985C539.885 0.00157166 538.83 0.556259 538.052 1.54237C537.275 2.52849 536.837 3.86549 536.836 5.26006V62.5363C536.837 63.9309 537.275 65.2679 538.052 66.254C538.83 67.2401 539.885 67.7948 540.985 67.7964Z" fill="#F2F2F2"/>
<path d="M537.297 11.1045H555.739V15.7801H537.297V11.1045Z" fill="#CCCCCC"/>
<path d="M537.297 47.3406H555.739V52.0162H537.297V47.3406Z" fill="#CCCCCC"/>
<path d="M513.321 67.7964H524.387C525.487 67.7948 526.542 67.2401 527.32 66.254C528.098 65.2679 528.535 63.9309 528.537 62.5363V5.26006C528.535 3.86549 528.098 2.52849 527.32 1.54237C526.542 0.556259 525.487 0.00157166 524.387 0H513.321C512.221 0.00157166 511.166 0.556259 510.389 1.54237C509.611 2.52849 509.173 3.86549 509.172 5.26006V62.5363C509.173 63.9309 509.611 65.2679 510.389 66.254C511.166 67.2401 512.221 67.7948 513.321 67.7964Z" fill="#F2F2F2"/>
<path d="M509.633 11.1045H528.076V15.7801H509.633V11.1045Z" fill="#CCCCCC"/>
<path d="M509.633 47.3406H528.076V52.0162H509.633V47.3406Z" fill="#CCCCCC"/>
<path d="M498.567 162.478H509.633C510.733 162.476 511.788 161.921 512.566 160.935C513.344 159.949 513.781 158.612 513.782 157.217V99.9412C513.781 98.5466 513.344 97.2096 512.566 96.2235C511.788 95.2374 510.733 94.6827 509.633 94.6812H498.567C497.467 94.6827 496.412 95.2374 495.634 96.2235C494.857 97.2096 494.419 98.5466 494.418 99.9412V157.217C494.419 158.612 494.857 159.949 495.634 160.935C496.412 161.921 497.467 162.476 498.567 162.478Z" fill="#F2F2F2"/>
<path d="M494.879 105.786H513.321V110.461H494.879V105.786Z" fill="#CCCCCC"/>
<path d="M494.879 142.022H513.321V146.697H494.879V142.022Z" fill="#CCCCCC"/>
<path d="M470.903 162.478H481.969C483.069 162.476 484.124 161.921 484.902 160.935C485.68 159.949 486.117 158.612 486.119 157.217V99.9412C486.117 98.5466 485.68 97.2096 484.902 96.2235C484.124 95.2374 483.069 94.6827 481.969 94.6812H470.903C469.803 94.6827 468.748 95.2374 467.971 96.2235C467.193 97.2096 466.755 98.5466 466.754 99.9412V157.217C466.755 158.612 467.193 159.949 467.971 160.935C468.748 161.921 469.803 162.476 470.903 162.478Z" fill="#F2F2F2"/>
<path d="M467.215 105.786H485.657V110.461H467.215V105.786Z" fill="#CCCCCC"/>
<path d="M467.215 142.022H485.657V146.697H467.215V142.022Z" fill="#CCCCCC"/>
<path d="M443.239 162.478H454.305C455.405 162.476 456.46 161.921 457.238 160.935C458.016 159.949 458.453 158.612 458.455 157.217V99.9412C458.453 98.5466 458.016 97.2096 457.238 96.2235C456.46 95.2374 455.405 94.6827 454.305 94.6812H443.239C442.139 94.6827 441.085 95.2374 440.307 96.2235C439.529 97.2096 439.091 98.5466 439.09 99.9412V157.217C439.091 158.612 439.529 159.949 440.307 160.935C441.085 161.921 442.139 162.476 443.239 162.478Z" fill="#F2F2F2"/>
<path d="M439.551 105.786H457.994V110.461H439.551V105.786Z" fill="#CCCCCC"/>
<path d="M439.551 142.022H457.994V146.697H439.551V142.022Z" fill="#CCCCCC"/>
<path d="M571.416 257.159H582.481C583.581 257.157 584.636 256.602 585.414 255.616C586.192 254.63 586.63 253.293 586.631 251.899V194.622C586.63 193.228 586.192 191.891 585.414 190.905C584.636 189.919 583.581 189.364 582.481 189.362H571.416C570.316 189.364 569.261 189.919 568.483 190.905C567.705 191.891 567.267 193.228 567.266 194.622V251.899C567.267 253.293 567.705 254.63 568.483 255.616C569.261 256.602 570.316 257.157 571.416 257.159Z" fill="#F2F2F2"/>
<path d="M567.727 200.467H586.17V205.142H567.727V200.467Z" fill="#CCCCCC"/>
<path d="M567.727 236.703H586.17V241.378H567.727V236.703Z" fill="#CCCCCC"/>
<path d="M543.752 257.159H554.817C555.917 257.157 556.972 256.602 557.75 255.616C558.528 254.63 558.966 253.293 558.967 251.899V194.622C558.966 193.228 558.528 191.891 557.75 190.905C556.972 189.919 555.917 189.364 554.817 189.362H543.752C542.652 189.364 541.597 189.919 540.819 190.905C540.041 191.891 539.603 193.228 539.602 194.622V251.899C539.603 253.293 540.041 254.63 540.819 255.616C541.597 256.602 542.652 257.157 543.752 257.159Z" fill="#F2F2F2"/>
<path d="M540.063 200.467H558.506V205.142H540.063V200.467Z" fill="#CCCCCC"/>
<path d="M540.063 236.703H558.506V241.378H540.063V236.703Z" fill="#CCCCCC"/>
<path d="M516.088 257.159H527.153C528.254 257.157 529.308 256.602 530.086 255.616C530.864 254.63 531.302 253.293 531.303 251.899V194.622C531.302 193.228 530.864 191.891 530.086 190.905C529.308 189.919 528.254 189.364 527.153 189.362H516.088C514.988 189.364 513.933 189.919 513.155 190.905C512.377 191.891 511.939 193.228 511.938 194.622V251.899C511.939 253.293 512.377 254.63 513.155 255.616C513.933 256.602 514.988 257.157 516.088 257.159Z" fill="#F2F2F2"/>
<path d="M512.399 200.467H530.842V205.142H512.399V200.467Z" fill="#CCCCCC"/>
<path d="M512.399 236.703H530.842V241.378H512.399V236.703Z" fill="#CCCCCC"/>
<path d="M485.657 67.7964H496.723C497.823 67.7948 498.878 67.2401 499.656 66.254C500.434 65.2679 500.871 63.9309 500.873 62.5363V5.26006C500.871 3.86549 500.434 2.52849 499.656 1.54237C498.878 0.556259 497.823 0.00157166 496.723 0H485.657C484.557 0.00157166 483.503 0.556259 482.725 1.54237C481.947 2.52849 481.509 3.86549 481.508 5.26006V62.5363C481.509 63.9309 481.947 65.2679 482.725 66.254C483.503 67.2401 484.557 67.7948 485.657 67.7964Z" fill="#F2F2F2"/>
<path d="M481.969 11.1045H500.412V15.7801H481.969V11.1045Z" fill="#CCCCCC"/>
<path d="M481.969 47.3406H500.412V52.0162H481.969V47.3406Z" fill="#CCCCCC"/>
<path d="M457.993 67.7964H469.059C470.159 67.7948 471.214 67.2401 471.992 66.254C472.77 65.2679 473.207 63.9309 473.209 62.5363V5.26006C473.207 3.86549 472.77 2.52849 471.992 1.54237C471.214 0.556259 470.159 0.00157166 469.059 0H457.993C456.893 0.00157166 455.839 0.556259 455.061 1.54237C454.283 2.52849 453.845 3.86549 453.844 5.26006V62.5363C453.845 63.9309 454.283 65.2679 455.061 66.254C455.839 67.2401 456.893 67.7948 457.993 67.7964Z" fill="#F2F2F2"/>
<path d="M454.305 11.1045H472.748V15.7801H454.305V11.1045Z" fill="#CCCCCC"/>
<path d="M454.305 47.3406H472.748V52.0162H454.305V47.3406Z" fill="#CCCCCC"/>
<path d="M430.33 67.7964H441.395C442.495 67.7948 443.55 67.2401 444.328 66.254C445.106 65.2679 445.543 63.9309 445.545 62.5363V5.26006C445.543 3.86549 445.106 2.52849 444.328 1.54237C443.55 0.556259 442.495 0.00157166 441.395 0H430.33C429.229 0.00157166 428.175 0.556259 427.397 1.54237C426.619 2.52849 426.181 3.86549 426.18 5.26006V62.5363C426.181 63.9309 426.619 65.2679 427.397 66.254C428.175 67.2401 429.229 67.7948 430.33 67.7964Z" fill="#F2F2F2"/>
<path d="M426.641 11.1045H445.084V15.7801H426.641V11.1045Z" fill="#CCCCCC"/>
<path d="M426.641 47.3406H445.084V52.0162H426.641V47.3406Z" fill="#CCCCCC"/>
<path d="M402.666 67.7964H413.731C414.831 67.7948 415.886 67.2401 416.664 66.254C417.442 65.2679 417.88 63.9309 417.881 62.5363V5.26006C417.88 3.86549 417.442 2.52849 416.664 1.54237C415.886 0.556259 414.831 0.00157166 413.731 0H402.666C401.565 0.00157166 400.511 0.556259 399.733 1.54237C398.955 2.52849 398.517 3.86549 398.516 5.26006V62.5363C398.517 63.9309 398.955 65.2679 399.733 66.254C400.511 67.2401 401.565 67.7948 402.666 67.7964Z" fill="#F2F2F2"/>
<path d="M398.977 11.1045H417.42V15.7801H398.977V11.1045Z" fill="#CCCCCC"/>
<path d="M398.977 47.3406H417.42V52.0162H398.977V47.3406Z" fill="#CCCCCC"/>
<path d="M361.224 69.5497H624.032C624.276 69.5497 624.511 69.4265 624.684 69.2073C624.857 68.9881 624.954 68.6908 624.954 68.3808C624.954 68.0708 624.857 67.7735 624.684 67.5543C624.511 67.335 624.276 67.2119 624.032 67.2119H361.224C360.98 67.2119 360.745 67.335 360.572 67.5543C360.399 67.7735 360.302 68.0708 360.302 68.3808C360.302 68.6908 360.399 68.9881 360.572 69.2073C360.745 69.4265 360.98 69.5497 361.224 69.5497Z" fill="#CCCCCC"/>
<path d="M361.224 164.231H624.032C624.276 164.231 624.511 164.108 624.684 163.888C624.857 163.669 624.954 163.372 624.954 163.062C624.954 162.752 624.857 162.455 624.684 162.235C624.511 162.016 624.276 161.893 624.032 161.893H361.224C360.98 161.893 360.745 162.016 360.572 162.235C360.399 162.455 360.302 162.752 360.302 163.062C360.302 163.372 360.399 163.669 360.572 163.888C360.745 164.108 360.98 164.231 361.224 164.231Z" fill="#CCCCCC"/>
<path d="M361.224 258.912H624.032C624.276 258.912 624.511 258.789 624.684 258.57C624.857 258.35 624.954 258.053 624.954 257.743C624.954 257.433 624.857 257.136 624.684 256.917C624.511 256.697 624.276 256.574 624.032 256.574H361.224C360.98 256.574 360.745 256.697 360.572 256.917C360.399 257.136 360.302 257.433 360.302 257.743C360.302 258.053 360.399 258.35 360.572 258.57C360.745 258.789 360.98 258.912 361.224 258.912Z" fill="#CCCCCC"/>
<path d="M376.788 442.409C376.788 433.371 403.623 426.045 436.726 426.045C469.829 426.045 496.665 433.371 496.665 442.409C496.665 448.202 485.632 453.287 469.001 456.196V545.857C469.001 547.872 468.37 549.805 467.245 551.23C466.121 552.655 464.597 553.455 463.007 553.455C461.417 553.455 459.893 552.655 458.769 551.23C457.645 549.805 457.013 547.872 457.013 545.857V457.811C450.676 458.433 443.848 458.774 436.726 458.774C429.605 458.774 422.776 458.433 416.439 457.811V545.857C416.439 547.872 415.808 549.805 414.684 551.23C413.56 552.655 412.035 553.455 410.446 553.455C408.856 553.455 407.331 552.655 406.207 551.23C405.083 549.805 404.452 547.872 404.452 545.857V456.196C387.821 453.287 376.788 448.202 376.788 442.409Z" fill="#CCCCCC"/>
<path d="M388.321 538.755H377.016L371.638 483.479H388.323L388.321 538.755Z" fill="#A0616A"/>
<path d="M355.213 552.06L390.743 552.062L390.744 534.66L368.941 534.659C365.3 534.659 361.808 536.492 359.234 539.755C356.659 543.019 355.213 547.445 355.213 552.06L355.213 552.06Z" fill="#2F2E41"/>
<path d="M370.673 530.757L359.887 526.466L367.81 471.685L383.73 478.017L370.673 530.757Z" fill="#A0616A"/>
<path d="M335.941 530.887L369.842 544.372L373.952 527.769L353.15 519.494C349.676 518.112 345.911 518.536 342.684 520.673C339.457 522.809 337.031 526.483 335.941 530.887Z" fill="#2F2E41"/>
<path d="M378.237 505.315L398.918 436.501C403.557 437.882 442.467 448.796 455.499 431.208C459.965 425.179 460.836 416.446 458.087 405.249L450.482 393.134L450.246 393.15C447.37 393.342 379.762 398.145 375.128 423.996C371.22 445.789 364.084 486.421 361.99 498.356C361.778 499.592 361.923 500.884 362.399 501.996C362.876 503.109 363.651 503.967 364.585 504.415L372.902 508.368C373.365 508.589 373.856 508.702 374.351 508.702C375.193 508.702 376.015 508.378 376.709 507.774C377.403 507.169 377.935 506.312 378.237 505.315Z" fill="#2F2E41"/>
<path d="M390.224 513.498L410.905 444.683C415.545 446.064 454.454 456.977 467.486 439.39C471.952 433.362 472.823 424.628 470.075 413.431L462.47 401.316L462.233 401.332C459.358 401.524 391.75 406.327 387.116 432.178C383.208 453.972 376.072 494.604 373.978 506.538C373.765 507.775 373.911 509.067 374.387 510.179C374.863 511.291 375.639 512.149 376.573 512.597L384.89 516.55C385.353 516.771 385.844 516.885 386.339 516.885C387.181 516.884 388.003 516.561 388.697 515.956C389.39 515.351 389.923 514.494 390.224 513.498Z" fill="#2F2E41"/>
<path d="M362.276 348.539C362.582 349.057 362.855 349.605 363.092 350.177L408.572 356.251L415.119 344.873L429.957 355.153L417.098 382.764L361.321 364.737C359.913 366.476 358.122 367.63 356.184 368.047C354.247 368.464 352.255 368.124 350.474 367.071C348.692 366.018 347.206 364.303 346.213 362.153C345.22 360.003 344.766 357.521 344.913 355.037C345.059 352.553 345.799 350.184 347.034 348.245C348.268 346.307 349.939 344.891 351.824 344.185C353.709 343.48 355.719 343.519 357.586 344.296C359.453 345.074 361.089 346.554 362.276 348.539V348.539Z" fill="#A0616A"/>
<path d="M470.368 417.064C470.99 416.496 471.476 415.72 471.772 414.823C472.068 413.926 472.162 412.942 472.045 411.981C469.479 390.54 472.431 359.826 475.359 337.835C475.959 333.373 475.726 328.795 474.678 324.468C473.631 320.14 471.799 316.184 469.328 312.916C466.858 309.648 463.818 307.159 460.452 305.648C457.087 304.137 453.488 303.646 449.946 304.215C446.864 304.731 443.811 305.494 440.805 306.499C435.812 308.093 431.396 311.793 428.281 316.991C425.167 322.188 423.541 328.575 423.67 335.099C424.108 356.32 420.709 382.797 419.227 393.195C419.126 393.91 419.142 394.643 419.274 395.349C419.406 396.055 419.652 396.719 419.996 397.299C420.333 397.873 420.761 398.352 421.252 398.704C421.744 399.057 422.288 399.275 422.85 399.345C439.272 401.469 456.98 411.62 466.075 417.482C466.659 417.864 467.307 418.065 467.965 418.068C468.829 418.064 469.671 417.713 470.368 417.064Z" fill="#B070E9"/>
<path d="M426.04 361.762C426.548 361.509 427.011 361.131 427.402 360.65C427.794 360.169 428.106 359.594 428.321 358.959L437.479 332.142C438.034 330.522 438.331 328.779 438.354 327.013C438.377 325.247 438.125 323.492 437.612 321.85C437.1 320.207 436.338 318.709 435.368 317.44C434.399 316.172 433.242 315.158 431.963 314.456C430.684 313.754 429.309 313.379 427.916 313.352C426.523 313.324 425.139 313.645 423.844 314.296C422.549 314.946 421.367 315.914 420.367 317.144C419.367 318.374 418.568 319.842 418.016 321.463L408.857 348.28C408.422 349.561 408.404 351.008 408.809 352.305C409.214 353.601 410.008 354.641 411.017 355.197L422.864 361.698C423.364 361.974 423.902 362.122 424.447 362.133C424.992 362.144 425.534 362.018 426.04 361.762H426.04Z" fill="#B070E9"/>
<path d="M405.616 346.201C405.922 346.719 406.195 347.267 406.432 347.84L451.912 353.913L458.459 342.535L473.297 352.815L460.438 380.426L404.661 362.399C403.254 364.138 401.462 365.293 399.524 365.71C397.587 366.127 395.595 365.786 393.814 364.733C392.033 363.68 390.547 361.965 389.553 359.815C388.56 357.665 388.106 355.183 388.253 352.699C388.399 350.215 389.139 347.846 390.374 345.907C391.608 343.969 393.279 342.553 395.164 341.848C397.049 341.142 399.059 341.181 400.926 341.959C402.793 342.736 404.429 344.216 405.616 346.201V346.201Z" fill="#A0616A"/>
<path d="M469.38 362.931C469.888 362.678 470.351 362.3 470.742 361.819C471.134 361.338 471.446 360.763 471.661 360.128L480.819 333.311C481.374 331.691 481.671 329.948 481.694 328.182C481.717 326.416 481.465 324.661 480.953 323.019C480.44 321.376 479.678 319.878 478.708 318.609C477.739 317.341 476.582 316.327 475.303 315.625C474.025 314.923 472.649 314.548 471.256 314.521C469.863 314.493 468.479 314.814 467.184 315.465C465.889 316.115 464.707 317.083 463.707 318.313C462.707 319.543 461.908 321.011 461.356 322.632L452.197 349.449C451.762 350.73 451.744 352.177 452.149 353.474C452.554 354.77 453.348 355.81 454.357 356.366L466.205 362.867C466.704 363.143 467.242 363.291 467.787 363.302C468.332 363.313 468.874 363.187 469.38 362.931H469.38Z" fill="#B070E9"/>
<path d="M451.632 295.092C439.123 295.092 428.983 282.238 428.983 266.382C428.983 250.527 439.123 237.673 451.632 237.673C464.14 237.673 474.28 250.527 474.28 266.382C474.28 282.238 464.14 295.092 451.632 295.092Z" fill="#A0616A"/>
<path d="M467.825 286.086C467.922 285.726 467.953 285.342 467.915 284.964C467.877 284.587 467.771 284.225 467.606 283.907C467.441 283.589 467.22 283.323 466.961 283.129C466.703 282.936 466.412 282.82 466.113 282.791C465.499 282.833 464.899 283.033 464.348 283.377C463.797 283.722 463.307 284.204 462.907 284.796C462.088 285.994 461.134 287.032 460.075 287.878C458.98 288.578 457.494 288.479 456.869 287.144C456.283 285.891 456.685 284.212 457.04 282.757C457.943 279.053 458.449 275.211 458.543 271.336C458.645 267.011 458.164 262.497 456.275 259.124C453.837 254.77 449.477 253.117 445.351 253.237C441.226 253.356 437.167 254.971 433.081 255.991C431.67 256.344 430.011 256.524 429.068 255.138C428.065 253.664 428.433 251.279 428.86 249.289C429.967 244.125 431.142 238.787 433.715 234.616C436.497 230.283 440.471 227.447 444.837 226.679C449.028 226.021 453.283 226.634 457.251 228.466C463.716 231.049 469.405 236.073 473.557 242.865C477.837 250.089 479.686 259.167 478.7 268.114C477.738 275.906 474.48 282.947 469.584 287.815L467.825 286.086Z" fill="#2F2E41"/>
<path d="M554.302 355.202C553.163 339.649 550.016 324.439 544.988 310.179C543.586 306.211 542.044 302.33 540.36 298.536C540.276 298.338 540.256 298.105 540.304 297.888C540.352 297.671 540.464 297.486 540.618 297.373C540.772 297.259 540.954 297.225 541.127 297.279C541.299 297.332 541.449 297.468 541.544 297.659C547.666 311.477 551.955 326.476 554.24 342.057C554.875 346.408 555.353 350.79 555.673 355.202C555.754 356.315 554.383 356.308 554.302 355.202Z" fill="#3F3D56"/>
<path d="M537.04 301.323C532.246 301.323 528.359 296.396 528.359 290.318C528.359 284.24 532.246 279.313 537.04 279.313C541.835 279.313 545.722 284.24 545.722 290.318C545.722 296.396 541.835 301.323 537.04 301.323Z" fill="#B070E9"/>
<path d="M553.414 355.494C552.675 345.404 550.633 335.537 547.371 326.286C546.462 323.711 545.462 321.194 544.369 318.732C544.315 318.604 544.301 318.453 544.333 318.312C544.364 318.171 544.437 318.052 544.536 317.978C544.636 317.904 544.754 317.882 544.866 317.917C544.979 317.951 545.076 318.04 545.137 318.163C549.109 327.128 551.892 336.858 553.374 346.966C553.786 349.789 554.096 352.632 554.303 355.494C554.356 356.216 553.466 356.212 553.414 355.494Z" fill="#3F3D56"/>
<path d="M542.216 320.54C539.105 320.54 536.584 317.344 536.584 313.401C536.584 309.458 539.105 306.262 542.216 306.262C545.326 306.262 547.848 309.458 547.848 313.401C547.848 317.344 545.326 320.54 542.216 320.54Z" fill="#B070E9"/>
<path d="M554.536 354.82C558.849 346.289 562.027 336.917 563.944 327.079C564.476 324.34 564.909 321.575 565.242 318.783C565.261 318.639 565.324 318.51 565.417 318.423C565.51 318.336 565.626 318.299 565.74 318.318C565.854 318.337 565.958 318.412 566.03 318.527C566.101 318.642 566.135 318.787 566.124 318.933C564.906 329.098 562.378 338.939 558.642 348.065C557.598 350.612 556.463 353.095 555.237 355.514C554.929 356.124 554.229 355.427 554.536 354.82Z" fill="#3F3D56"/>
<path d="M566.131 320.039C563.02 320.039 560.499 316.843 560.499 312.9C560.499 308.957 563.02 305.761 566.131 305.761C569.241 305.761 571.763 308.957 571.763 312.9C571.763 316.843 569.241 320.039 566.131 320.039Z" fill="#B070E9"/>
<path d="M571.826 361.137V347.11C571.825 345.715 571.387 344.378 570.609 343.392C569.831 342.406 568.776 341.852 567.676 341.85H541.857C540.756 341.852 539.702 342.406 538.924 343.392C538.146 344.378 537.708 345.715 537.707 347.11V361.137C537.708 362.531 538.146 363.868 538.924 364.855C539.702 365.841 540.756 366.395 541.857 366.397H567.676C568.776 366.395 569.831 365.841 570.609 364.855C571.387 363.868 571.825 362.531 571.826 361.137Z" fill="#CCCCCC"/>
<path d="M340.364 357.079H413.212C414.995 357.079 416.44 358.911 416.44 361.17C416.44 363.43 414.995 365.262 413.212 365.262H340.364C338.581 365.262 337.136 363.43 337.136 361.17C337.136 358.911 338.581 357.079 340.364 357.079Z" fill="#CCCCCC"/>
<path d="M291.491 365.262H373.56C375.15 365.259 376.673 364.458 377.797 363.034C378.92 361.609 379.552 359.678 379.554 357.664V300.387C379.552 298.373 378.92 296.442 377.797 295.017C376.673 293.593 375.15 292.792 373.56 292.79H291.491C289.902 292.792 288.378 293.593 287.254 295.017C286.131 296.442 285.499 298.373 285.497 300.387V357.664C285.499 359.678 286.131 361.609 287.254 363.034C288.378 364.458 289.902 365.259 291.491 365.262Z" fill="#CCCCCC"/>
<path d="M332.526 336.039C329.47 336.039 326.993 332.899 326.993 329.026C326.993 325.152 329.47 322.012 332.526 322.012C335.581 322.012 338.058 325.152 338.058 329.026C338.058 332.899 335.581 336.039 332.526 336.039Z" fill="white"/>
<path d="M82.6279 442.409C82.6279 433.371 109.463 426.045 142.566 426.045C175.669 426.045 202.505 433.371 202.505 442.409C202.505 448.202 191.472 453.287 174.841 456.196V545.857C174.841 547.872 174.21 549.805 173.085 551.23C171.961 552.655 170.437 553.455 168.847 553.455C167.257 553.455 165.733 552.655 164.609 551.23C163.485 549.805 162.853 547.872 162.853 545.857V457.811C156.516 458.433 149.688 458.774 142.566 458.774C135.445 458.774 128.616 458.433 122.28 457.811V545.857C122.28 547.872 121.648 549.805 120.524 551.23C119.4 552.655 117.875 553.455 116.286 553.455C114.696 553.455 113.171 552.655 112.047 551.23C110.923 549.805 110.292 547.872 110.292 545.857V456.196C93.6606 453.287 82.6279 448.202 82.6279 442.409Z" fill="#CCCCCC"/>
<path d="M135.939 292.623C121.679 292.623 110.119 277.97 110.119 259.894C110.119 241.818 121.679 227.164 135.939 227.164C150.199 227.164 161.758 241.818 161.758 259.894C161.758 277.97 150.199 292.623 135.939 292.623Z" fill="#2F2E41"/>
<path d="M200.193 539.923H211.499L216.876 484.648H200.191L200.193 539.923Z" fill="#FFB8B8"/>
<path d="M219.574 535.828H197.771V553.229H233.301C233.301 550.944 232.946 548.682 232.256 546.57C231.567 544.459 230.555 542.541 229.281 540.925C228.006 539.309 226.493 538.027 224.827 537.153C223.161 536.278 221.376 535.828 219.574 535.828Z" fill="#2F2E41"/>
<path d="M217.841 531.926L228.627 527.635L220.704 472.854L204.784 479.186L217.841 531.926Z" fill="#FFB8B8"/>
<path d="M235.365 520.663L214.562 528.938L218.672 545.541L252.573 532.056C252.033 529.875 251.16 527.851 250.003 526.099C248.846 524.346 247.428 522.9 245.83 521.842C244.232 520.784 242.485 520.135 240.69 519.933C238.894 519.731 237.085 519.979 235.365 520.663Z" fill="#2F2E41"/>
<path d="M214.163 509.871C214.658 509.871 215.149 509.758 215.612 509.537L223.929 505.584C224.863 505.136 225.639 504.278 226.115 503.165C226.591 502.053 226.737 500.761 226.524 499.525C224.43 487.59 217.294 446.958 213.386 425.165C208.752 399.314 141.144 394.51 138.268 394.319L138.032 394.303L130.427 406.417C127.679 417.615 128.55 426.348 133.016 432.377C146.048 449.965 184.957 439.051 189.597 437.67L210.278 506.484C210.579 507.481 211.112 508.338 211.805 508.943C212.499 509.547 213.321 509.871 214.163 509.871Z" fill="#2F2E41"/>
<path d="M202.175 518.053C202.67 518.053 203.161 517.94 203.625 517.719L211.942 513.766C212.875 513.318 213.651 512.46 214.127 511.348C214.604 510.235 214.749 508.943 214.537 507.707C212.443 495.772 205.306 455.14 201.399 433.347C196.764 407.496 129.156 402.693 126.281 402.501L126.044 402.485L118.439 414.6C115.691 425.797 116.562 434.53 121.028 440.559C134.06 458.146 172.969 447.233 177.609 445.852L198.29 514.667C198.591 515.663 199.124 516.52 199.818 517.125C200.511 517.73 201.333 518.053 202.175 518.053Z" fill="#2F2E41"/>
<path d="M226.238 349.708C225.932 350.226 225.66 350.774 225.422 351.346L179.942 357.42L173.395 346.042L158.558 356.322L171.416 383.933L227.194 365.905C228.601 367.645 230.392 368.799 232.33 369.216C234.268 369.633 236.259 369.293 238.041 368.24C239.822 367.187 241.308 365.471 242.301 363.322C243.295 361.172 243.748 358.69 243.601 356.206C243.455 353.721 242.715 351.353 241.481 349.414C240.246 347.476 238.575 346.06 236.69 345.354C234.805 344.649 232.796 344.688 230.929 345.465C229.061 346.243 227.425 347.723 226.238 349.708Z" fill="#FFB8B8"/>
<path d="M120.55 419.237C121.207 419.234 121.855 419.033 122.439 418.651C131.534 412.789 149.243 402.638 165.664 400.514C166.226 400.444 166.77 400.226 167.262 399.873C167.753 399.521 168.181 399.042 168.518 398.468C168.862 397.888 169.108 397.224 169.24 396.518C169.372 395.812 169.388 395.078 169.287 394.364C167.805 383.966 164.406 357.489 164.844 336.268C164.973 329.744 163.347 323.357 160.233 318.16C157.119 312.962 152.702 309.262 147.709 307.668C144.703 306.663 141.65 305.9 138.568 305.384C135.026 304.815 131.428 305.306 128.062 306.817C124.696 308.328 121.656 310.817 119.186 314.085C116.715 317.353 114.883 321.309 113.836 325.636C112.789 329.964 112.555 334.542 113.155 339.003C116.083 360.995 119.035 391.709 116.47 413.15C116.352 414.111 116.446 415.094 116.742 415.992C117.038 416.889 117.524 417.665 118.147 418.233C118.844 418.882 119.685 419.233 120.55 419.237Z" fill="#B070E9"/>
<path d="M164.002 363.303C164.569 363.302 165.13 363.153 165.65 362.867L177.497 356.366C178.506 355.81 179.3 354.77 179.705 353.474C180.11 352.177 180.093 350.73 179.657 349.449L170.499 322.632C169.946 321.011 169.147 319.543 168.147 318.313C167.147 317.083 165.966 316.115 164.67 315.465C163.375 314.814 161.991 314.493 160.598 314.521C159.205 314.548 157.83 314.923 156.551 315.625C155.272 316.327 154.115 317.341 153.146 318.609C152.177 319.878 151.414 321.376 150.902 323.019C150.39 324.661 150.138 326.416 150.16 328.182C150.183 329.948 150.481 331.691 151.035 333.311L160.193 360.128C160.515 361.07 161.047 361.872 161.724 362.436C162.401 363 163.193 363.301 164.002 363.303Z" fill="#B070E9"/>
<path d="M136.883 296.261C124.374 296.261 114.234 283.407 114.234 267.551C114.234 251.695 124.374 238.842 136.883 238.842C149.391 238.842 159.531 251.695 159.531 267.551C159.531 283.407 149.391 296.261 136.883 296.261Z" fill="#FFB8B8"/>
<path d="M159.939 253.446C149.211 261.747 137.117 266.799 124.597 268.208L128.322 262.549C125.61 263.821 122.756 264.539 119.866 264.678C116.979 264.621 113.955 263.212 112.317 260.199C111.586 258.701 111.152 257.002 111.052 255.245C110.951 253.489 111.188 251.727 111.74 250.112C112.876 246.889 114.643 244.088 116.873 241.976C120.827 238.011 125.493 235.348 130.456 234.224C135.418 233.1 140.523 233.549 145.316 235.533C148.603 236.778 151.547 239.172 153.811 242.44C155.958 245.798 160.091 248.789 158.992 252.88L159.939 253.446Z" fill="#2F2E41"/>
<path d="M133.074 230.277C140.218 221.095 148.862 214.009 158.399 209.519C164.521 206.644 171.184 204.868 177.584 206.5C183.984 208.133 190.037 213.745 191.822 221.705C193.282 228.214 191.774 235.222 189.509 241.349C187.243 247.476 184.218 253.158 182.386 259.514C180.516 265.999 179.954 272.973 180.75 279.804C181.546 286.634 183.675 293.104 186.944 298.627C190.214 304.15 194.519 308.55 199.47 311.428C204.421 314.307 209.861 315.572 215.296 315.109C209.007 316.178 203.211 319.924 197.064 321.918C190.918 323.912 183.663 323.777 179.095 318.195C174.263 312.289 174.166 302.687 174.399 294.183L175.442 256.258C175.619 249.811 175.77 243.157 173.936 237.14C172.102 231.122 167.743 225.853 162.654 225.908C158.797 225.949 155.383 228.911 152.29 231.832C149.197 234.753 145.923 237.869 142.082 238.303C138.24 238.738 133.854 235.134 134.141 230.258" fill="#2F2E41"/>
<path d="M238.351 328.563L186.202 330.124L178.647 400.791L226.807 402.161L238.351 328.563Z" fill="#E6E6E6"/>
<path d="M182.898 347.37C182.592 347.888 182.319 348.436 182.082 349.008L136.602 355.082L130.055 343.704L115.217 353.984L128.076 381.595L183.853 363.568C185.261 365.307 187.052 366.462 188.99 366.879C190.927 367.296 192.919 366.955 194.7 365.902C196.482 364.849 197.968 363.134 198.961 360.984C199.954 358.834 200.408 356.352 200.261 353.868C200.115 351.384 199.375 349.015 198.14 347.076C196.906 345.138 195.235 343.722 193.35 343.017C191.465 342.311 189.456 342.35 187.588 343.128C185.721 343.905 184.085 345.385 182.898 347.37V347.37Z" fill="#FFB8B8"/>
<path d="M120.662 364.472C121.229 364.471 121.79 364.322 122.31 364.036L134.157 357.535C135.166 356.979 135.96 355.939 136.365 354.643C136.77 353.346 136.752 351.899 136.317 350.618L127.158 323.801C126.606 322.18 125.807 320.712 124.807 319.482C123.807 318.252 122.626 317.284 121.33 316.634C120.035 315.983 118.651 315.662 117.258 315.69C115.865 315.717 114.49 316.092 113.211 316.794C111.932 317.495 110.775 318.51 109.806 319.778C108.837 321.047 108.074 322.545 107.562 324.188C107.049 325.83 106.797 327.585 106.82 329.351C106.843 331.117 107.14 332.859 107.695 334.48L116.853 361.297C117.175 362.239 117.707 363.041 118.384 363.605C119.061 364.169 119.852 364.47 120.662 364.472Z" fill="#B070E9"/>
<path d="M227.864 364.093H594.872C596.462 364.093 597.986 364.893 599.11 366.318C600.234 367.743 600.866 369.675 600.866 371.691C600.866 373.706 600.234 375.638 599.11 377.063C597.986 378.488 596.462 379.288 594.872 379.288H584.267V544.688C584.267 546.703 583.636 548.636 582.512 550.061C581.388 551.486 579.863 552.286 578.274 552.286C576.684 552.286 575.159 551.486 574.035 550.061C572.911 548.636 572.28 546.703 572.28 544.688V393.888L505.083 548.274C504.286 550.015 502.978 551.284 501.444 551.803C499.91 552.322 498.276 552.048 496.901 551.042C495.526 550.036 494.523 548.379 494.11 546.436C493.698 544.493 493.91 542.421 494.701 540.676L564.945 379.288H244.001V379.387L314.202 540.676C314.997 542.422 315.212 544.495 314.801 546.442C314.389 548.388 313.385 550.048 312.008 551.055C310.632 552.063 308.996 552.336 307.46 551.814C305.925 551.293 304.615 550.019 303.821 548.274L244.001 410.837V544.688C244.001 546.703 243.369 548.636 242.245 550.061C241.121 551.486 239.597 552.286 238.007 552.286C236.417 552.286 234.893 551.486 233.769 550.061C232.645 548.636 232.013 546.703 232.013 544.688V383.295L230.269 379.288H227.864C226.274 379.288 224.749 378.488 223.625 377.063C222.501 375.638 221.87 373.706 221.87 371.691C221.87 369.675 222.501 367.743 223.625 366.318C224.749 364.893 226.274 364.093 227.864 364.093Z" fill="#3F3D56"/>
<path d="M1.09796 554H681.902C682.193 553.999 682.471 553.852 682.676 553.591C682.882 553.33 682.997 552.977 682.997 552.608C682.997 552.24 682.882 551.886 682.676 551.625C682.471 551.364 682.193 551.217 681.902 551.216H1.09796C0.806763 551.216 0.527466 551.363 0.321533 551.624C0.115662 551.885 -6.10352e-05 552.239 -6.10352e-05 552.608C-6.10352e-05 552.977 0.115662 553.331 0.321533 553.592C0.527466 553.853 0.806763 554 1.09796 554Z" fill="#3F3D56"/>
</g>
<defs>
<clipPath id="clip0">
<rect width="683" height="554" fill="white" transform="matrix(-1 0 0 1 683 0)"/>
</clipPath>
</defs>
</svg>
